<svg width="254" height="74" viewBox="0 0 254 74" fill="none" xmlns="http://www.w3.org/2000/svg">
<path d="M36.2164 9.45014C51.3308 9.18386 63.8132 21.1957 64.1312 36.3127C64.4492 51.4296 52.483 63.9561 37.3706 64.326C22.1851 64.6976 9.58744 52.6576 9.26791 37.4673C8.94838 22.277 21.0285 9.71772 36.2164 9.45014ZM33.2904 41.16C32.9762 39.8203 32.4992 39.0166 32.076 37.7779C31.0651 34.8198 29.8814 31.9656 28.663 29.0897C27.9043 27.2373 26.6169 26.3737 24.5725 26.5479C23.1582 26.967 22.7389 27.173 21.9422 28.4196C21.9235 28.9967 21.8167 30.8605 21.9918 31.3284C23.2787 34.7674 24.8156 38.1929 26.0644 41.6495C26.8537 43.834 27.8577 47.186 30.665 47.0878C31.9093 47.0443 32.7702 46.7229 33.6772 45.8414C34.72 44.9703 36.3408 41.6339 36.5352 40.3631L36.71 40.2032C38.6774 40.6274 37.1498 47.511 43.4066 47.0516C45.2002 45.9071 46.5888 43.7792 45.259 41.7241C45.1852 41.6089 45.1036 41.499 45.0148 41.395C44.7164 40.18 44.2026 39.1454 43.784 37.9836C43.0092 35.8331 42.1915 33.6954 41.2662 31.6041C40.5634 30.0157 40.1054 27.9246 38.5381 26.9733C35.8261 25.3271 32.4754 27.9036 33.4001 30.95C33.7047 31.9544 33.9232 32.7665 34.6213 33.578C34.6886 34.9384 34.7592 36.3069 34.7677 37.6706C34.777 39.1631 34.0336 39.9766 33.2904 41.16ZM44.1078 29.8961C44.2965 30.4119 44.5989 31.17 44.7341 31.6796C46.8571 33.6799 47.8683 32.1397 47.306 35.9055C46.7339 36.3491 46.1988 36.863 46.0199 37.5922C46.0943 38.0169 46.0129 37.8787 46.3421 38.149L46.637 38.2032C52.0731 36.2374 53.4172 26.2948 47.3976 26.5728C45.0168 26.8761 44.6363 27.8197 44.1078 29.8961Z" fill="#FDFDFE"/>
<path d="M117.44 44.1774C125.12 44.0132 133.392 44.169 141.116 44.1898L175.848 44.1668L198.628 44.1592C202.538 44.1576 206.58 44.1157 210.482 44.2264C211.755 44.2625 213.098 44.7749 214.049 45.5361C215.842 46.9723 216.297 48.2725 216.763 50.4067C216.838 50.7513 217.25 51.0425 217.328 51.5926C217.454 52.494 216.938 52.8116 216.783 53.3625C216.434 54.6014 216.392 55.476 215.504 56.5255C213.737 58.612 212.171 59.0677 209.663 59.3788C203.194 59.5342 196.719 59.3918 190.262 59.4109L147.8 59.4131L128.335 59.454C124.625 59.4725 120.882 59.5421 117.178 59.3615C116.417 59.2389 115.173 59.1999 114.463 58.9199C109.714 57.0454 108.181 50.6634 111.498 46.8247C113.398 44.6254 114.728 44.3755 117.44 44.1774ZM201.759 52.3037C202.083 52.5775 202.41 52.8455 202.742 53.1076C202.805 53.8426 202.868 54.5211 202.969 55.2548C203.3 55.4442 203.359 55.4794 203.733 55.443C204.139 55.1525 204.313 54.8731 204.358 54.3446C204.477 52.9339 204.706 48.8345 203.996 47.7629C202.524 47.0115 201.588 50.6503 199.933 50.2567C198.874 49.441 199.044 48.1493 197.397 47.5449C196.328 49.4331 196.807 50.7054 196.649 52.7588C196.573 53.7321 196.37 55.731 197.905 55.4155C198.607 54.5948 197.931 53.1854 198.701 52.6035C199.262 52.8744 199.816 53.1626 200.36 53.4679C200.814 53.1038 201.343 52.6984 201.759 52.3037ZM124.519 55.6244C127.028 55.3571 128.55 53.6968 126.57 51.3354C126.282 50.9928 125.32 50.7867 125.095 50.3192C125.268 49.4866 126.765 49.9575 127.022 48.9515C126.706 47.2916 124.484 47.6548 123.171 47.7473C121.696 48.6779 120.925 50.1294 122.505 51.5172C123.221 52.146 124.562 52.3612 124.68 53.2581C124.036 53.9573 122.532 52.9471 121.695 53.4691C120.62 55.0678 123.596 55.5287 124.519 55.6244ZM181.5 54.9255C182.102 55.9552 185.924 55.5733 187.104 55.5384C187.142 55.0492 187.23 54.4668 187.292 53.9721C186.155 53.9017 185.037 54.0098 183.897 53.9365C183.228 53.8934 183.049 53.0981 183.276 52.5766C183.925 51.9928 185.714 52.1329 186.644 52.1195C186.652 51.6917 186.695 51.2935 186.528 50.9017C185.81 50.079 183.578 50.9795 182.91 49.9897C183.515 49.0665 186.565 50.0249 187.202 48.3118C186.855 47.3943 182.622 47.5852 181.815 47.8297C181 49.3214 180.987 53.2133 181.413 54.6676C181.439 54.7547 181.468 54.8408 181.5 54.9255ZM170.879 47.6578C169.709 47.7021 166.888 47.5847 166.016 47.9999C165.759 48.3252 165.798 48.1894 165.783 48.5698C166.345 49.0741 167.41 49.1656 168.332 49.7234C168.315 51.246 168.268 52.9298 168.292 54.4465C168.38 54.9307 168.325 55.0464 168.617 55.3901C169.016 55.4711 169.09 55.4532 169.47 55.2993C170.819 54.1412 169.449 50.3373 170.353 49.5002C171.192 49.1112 172.272 49.2564 172.107 48.0439C171.76 47.6879 171.487 47.6687 170.972 47.6588C170.941 47.6583 170.91 47.6579 170.879 47.6578ZM136.485 47.5253C136.237 47.8617 135.918 48.2403 136.031 48.6541C136.519 50.4339 138.319 51.3567 138.679 53.3539C138.84 54.2437 138.517 54.9941 139.072 55.4059C140.585 55.297 140.209 52.8652 140.92 51.556C141.623 50.6 143.317 48.7771 142.502 47.6329C141.188 47.2602 140.246 50.0612 139.326 49.9823C138.278 49.8922 137.605 47.7474 136.485 47.5253ZM152.882 47.7439C151.33 48.9534 151.007 49.9612 152.295 51.5515C152.398 51.6783 152.502 51.8043 152.607 51.9291C153.128 52.0604 153.942 52.1735 154.237 52.572C154.341 52.9375 154.43 53.1291 154.283 53.4861C153.273 53.978 152.276 52.8534 151.462 53.5959C151.186 54.7959 152.247 55.3296 153.25 55.503C153.887 55.607 154.537 55.6214 155.179 55.5459C157.321 54.9517 158.267 52.5999 156.225 51.1596C155.687 50.7803 154.721 50.6152 154.218 50.1455L154.161 49.9478C154.804 49.4194 156.652 50.0603 156.93 48.794C156.481 47.3542 154.129 47.6017 152.882 47.7439Z" fill="#FDFDFE"/>
<path d="M181.816 47.8296C181.856 49.6286 181.785 51.5347 181.728 53.3392C181.715 53.7912 181.545 54.4122 181.502 54.9254C181.469 54.8406 181.441 54.7546 181.415 54.6675C180.988 53.2131 181.001 49.3212 181.816 47.8296Z" fill="#FDFDFE"/>
<path d="M82.5864 17.0103C83.4798 17.1255 83.8948 17.6077 84.5157 18.2204C84.6081 18.6559 85.013 19.7543 85.204 20.1935C86.469 23.1027 87.3756 28.2362 88.9275 30.8454C89.4506 29.7505 90.6677 25.8772 91.1117 24.5186C91.7268 22.6367 92.7886 19.9802 93.2848 18.2044L94.0732 17.4324C95.0914 17.1004 95.7291 17.0484 96.7663 17.0353C97.079 17.2221 97.6479 17.5999 97.8338 17.9208C99.2355 20.3401 99.9767 23.7445 100.925 26.3999C101.65 28.4333 101.315 29.1215 102.739 30.8162C103.109 29.9594 103.249 28.966 103.573 28.0965C104.781 24.8551 105.693 21.5252 106.873 18.2743C107.251 17.2341 109.378 16.8646 110.295 17.2453C111.087 17.5739 111.378 18.6763 111.664 19.4221C110.973 21.0142 110.414 23.3774 109.673 25.1043C109.063 26.827 108.395 28.5079 107.79 30.2467C106.722 33.3148 106.217 36.1226 104.432 38.8519C102.221 39.4656 100.608 39.3663 99.7213 37.0229C98.6392 34.1628 97.6461 31.2785 96.6231 28.3957C96.443 27.888 96.3852 27.3665 96.1844 26.8179C95.8566 26.5555 96.0067 26.6091 95.5829 26.5958C95.5064 26.6471 95.4123 26.7103 95.3004 26.7856C94.029 30.0412 93.072 33.5246 91.7572 36.7689C91.3272 37.6445 90.9203 38.5625 89.9977 38.9504C89.097 39.3292 86.9299 39.1384 86.4654 38.1772C84.9132 34.9662 83.8178 31.4068 82.7148 28.0137C82.2095 26.4587 81.5232 24.9152 81.0114 23.3569C80.2553 21.0092 79.4312 19.8436 80.5318 17.5087C81.2696 17.2978 81.8415 17.1648 82.5864 17.0103Z" fill="#FDFDFE"/>
<path d="M240.272 18.1945C241.777 16.7289 242.78 16.8766 244.439 17.9089C244.547 18.5257 244.623 19.0004 244.816 19.5973C244.792 25.2265 244.803 30.8557 244.852 36.4848C244.796 36.8839 244.593 37.5318 244.475 37.9421L243.683 38.7209C242.585 39.0517 241.545 39.247 240.545 38.5032C239.575 37.7822 238.854 36.5419 238.119 35.5798C237.083 34.2224 236.043 32.8734 234.999 31.5224C233.841 30.0202 232.415 27.4767 230.853 26.4283L230.651 26.347C229.889 27.2288 230.61 35.9774 230.23 37.3121C229.685 39.6659 227.375 39.3823 225.937 37.9396C225.453 36.0148 225.533 20.1884 225.957 18.2646L226.707 17.4829C230.702 16.6415 230.166 17.6005 232.523 20.2701C234.783 22.8292 237.301 27.3017 239.838 29.3671C240.242 26.0043 239.599 21.2375 240.272 18.1945Z" fill="#FDFDFE"/>
<path d="M202.18 17.4552C206.529 16.5998 205.621 17.9221 208.011 20.3707C209.32 21.711 214.28 29.2683 215.311 29.326C216.785 27.583 212.738 14.1207 219.642 17.6192C219.944 18.363 220.023 18.5843 220.141 19.3736C219.997 20.8146 220.064 23.3658 220.064 24.8713L220.087 33.8175C220.098 34.7232 220.224 36.3464 220.185 37.1463C219.964 37.9765 219.732 38.108 219.115 38.7212C217.779 39.1204 217.365 39.1212 216.042 38.6553C214.412 36.4653 212.474 34.3039 210.842 32.0906C209.957 30.8917 207.377 26.8691 206.133 26.463C205.912 26.7377 205.984 26.7933 205.985 27.2025C205.496 30.947 205.63 33.2503 205.809 36.8961C205.675 37.4642 205.473 38.065 205.043 38.479C204.637 38.8742 204.088 39.0863 203.522 39.0661C202.545 39.0331 201.96 38.5716 201.333 37.8946C201.125 36.3895 201.178 30.68 201.211 28.9493C201.263 26.2198 201.037 20.8083 201.369 18.2755C201.619 17.9554 201.882 17.7287 202.18 17.4552Z" fill="#FDFDFE"/>
<path d="M122.8 16.8833C123.787 16.8969 124.054 17.0125 124.901 17.5239C127.118 21.8186 129.001 25.9594 130.814 30.474C131.626 32.4816 133.035 34.4767 133.388 36.6166C133.46 37.0542 132.903 38.25 132.714 38.6921C131.426 39.1299 130.883 39.2058 129.62 38.7057C128.242 37.0399 128.412 36.0998 127.374 34.6331C126.861 33.9094 123.89 34.1221 122.87 34.1382C115.63 34.1103 119.272 34.2268 115.833 38.7386C114.493 39.2074 113.873 39.0259 112.528 38.7407C111.529 35.6174 112.712 34.4611 113.961 31.7222L116.918 25.1702C118.053 22.7036 118.886 19.644 120.56 17.5448C121.46 17.1527 121.864 17.0675 122.8 16.8833ZM122.939 29.6921C123.457 29.7246 124.004 29.8075 124.475 29.6009C125.198 28.7193 123.602 25.2789 123.178 24.2216C123.137 24.1202 122.35 23.9613 122.213 23.9428C121.826 25.5636 119.964 28.6235 120.449 29.574C120.846 29.9191 122.366 29.7284 122.939 29.6921Z" fill="#FDFDFE"/>
<path d="M171.044 17.5794C172.39 17.2001 174.623 16.4489 175.052 18.4593C175.404 20.1165 175.294 21.9034 175.289 23.5959L175.27 30.0386C175.273 31.7856 175.409 36.478 175.178 37.8845C174.918 38.1293 174.55 38.4533 174.321 38.7143C173.912 38.8407 173.341 39.0367 172.939 39.1341C170.709 38.5213 170.564 37.4993 170.572 35.3038C170.578 33.6607 170.68 31.9982 170.511 30.3614C168.197 30.1185 164.492 30.2608 162.09 30.3032C162.088 31.8011 161.814 32.4525 161.74 33.901C161.682 35.0392 161.968 36.084 161.931 37.104C161.363 38.5131 160.828 38.7475 159.415 39.1343C158.363 38.8059 158.195 38.726 157.433 37.9257C157.071 36.2364 157.021 19.4831 157.48 18.2677C157.635 17.8579 158.109 17.518 158.506 17.3483C159.506 16.9198 160.482 17.192 161.44 17.5769L161.697 18.6332C162.091 20.6809 161.051 23.5614 162.266 25.2764C162.346 25.4357 162.476 25.7488 162.689 25.7465C164.899 25.7222 167.938 26.2085 170.003 25.5276C170.801 25.2647 170.629 23.6068 170.623 22.9966C170.614 21.1899 170.426 19.3194 171.044 17.5794Z" fill="#FDFDFE"/>
<path d="M142.383 17.1456C145.054 16.9731 150.637 17.0235 152.054 20.163C152.443 21.0251 151.838 21.7351 151.43 22.5157C151.319 22.5791 151.206 22.6408 151.092 22.7012C149.291 23.6549 147.773 22.1115 146.033 21.6347C141.507 20.3939 139.162 24.0931 144.786 25.4687C151.315 27.0661 154.051 28.7326 152.144 35.8977C151.853 36.1397 151.5 36.6407 151.22 36.9369C149.513 38.7437 147.811 38.9794 145.518 39.0996C143.115 39.4229 136.376 38.0606 135.956 35.1469C135.597 31.0662 140.081 32.9247 142.039 34.0436C143.104 34.6519 146.227 35.0692 147.089 34.0423C148.234 32.6788 147.602 31.6425 146.124 31.0419C142.748 29.6698 137.214 29.3752 136.581 24.8239C136.017 20.5899 138.289 17.7851 142.383 17.1456Z" fill="#FDFDFE"/>
<path d="M192.732 17.125C193.893 16.8637 194.476 17.4979 195.282 18.1903C195.59 20.6904 195.425 25.9076 195.437 28.6135C195.447 30.8848 195.559 35.7173 195.348 37.7521L194.484 38.7302L193.363 39.0481C192.536 39.0506 192.083 38.8612 191.323 38.5889C190.843 37.621 190.54 36.1226 190.535 35.0218C190.51 30.1365 190.43 25.2283 190.521 20.3456C190.535 19.6165 190.794 18.3105 191.226 17.7417C191.483 17.4032 192.303 17.2388 192.732 17.125Z" fill="#FDFDFE"/>
<path d="M220.141 19.3737L220.321 19.4811L220.58 19.1631C221.112 19.8359 220.638 34.4393 220.779 36.2653C220.81 36.6702 220.439 36.8209 220.185 37.1463C220.224 36.3465 220.098 34.7233 220.087 33.8176L220.064 24.8714C220.064 23.3658 219.997 20.8146 220.141 19.3737Z" fill="#FDFDFE"/>
<path d="M244.817 19.5972L245.035 20.4565C245.16 20.2775 245.149 19.9326 245.17 19.6839C245.633 20.6503 245.204 28.4235 245.318 30.0323C245.383 30.9304 245.405 35.3955 245.252 36.2208L245.149 35.9958L245.036 35.9572L244.853 36.4847C244.804 30.8556 244.793 25.2264 244.817 19.5972Z" fill="#FDFDFE"/>
<path d="M230.23 37.3118C230.611 35.9771 229.89 27.2285 230.652 26.3467L230.854 26.428C230.66 26.6421 230.568 26.7979 230.636 27.135C230.895 28.4088 231.152 35.9933 230.756 36.827C230.499 36.9836 230.354 37.0423 230.23 37.3118Z" fill="#FDFDFE"/>
<path d="M205.986 27.2026C206.339 28.6225 206.629 35.4854 206.206 36.6155C206.076 36.7019 205.925 36.7943 205.81 36.8963C205.63 33.2504 205.496 30.9471 205.986 27.2026Z" fill="#FDFDFE"/>
<path d="M161.697 18.6333C162.273 19.1144 162.383 19.1921 162.421 20.1057C162.471 21.4014 162.501 24.0628 162.266 25.2764C161.051 23.5614 162.091 20.681 161.697 18.6333Z" fill="#FDFDFE"/>
<path d="M161.931 37.104C161.968 36.084 161.682 35.0392 161.74 33.9011C161.815 32.4526 162.088 31.8012 162.09 30.3032C162.366 31.5561 162.677 35.8412 162.247 36.8539L161.931 37.104Z" fill="#FDFDFE"/>
</svg>
